<svg width="170" height="67" viewBox="0 0 170 67" fill="none" xmlns="http://www.w3.org/2000/svg">
<g clip-path="url(#clip0_31_962)">
<path d="M61.1839 26.3516C61.3321 28.7229 62.0826 30.965 62.2633 33.3686C63.0786 44.1916 59.1686 52.9754 51.0197 59.9324C44.4228 65.5607 36.5796 67.6321 28.0462 66.8524C21.6343 66.2901 15.5803 63.6652 10.7987 59.3742C4.99913 54.3432 1.25821 47.3654 0.287098 39.7673C-0.561925 33.8776 0.44827 27.8708 3.1779 22.5779C7.5002 14.117 14.1018 8.30413 23.4645 5.84982C24.4373 5.63226 25.4325 5.53005 26.4294 5.54534C26.9297 6.98471 25.9244 7.99504 25.2805 9.01921C23.8234 11.3115 22.186 13.485 20.3837 15.5194C18.7808 17.4755 17.0158 19.3163 16.0938 21.7383C14.3103 25.1199 14.4678 28.6999 14.931 32.326C15.0515 33.2486 15.7047 34.2451 14.7967 35.1401C12.1746 34.3835 12.749 31.8831 11.9522 30.1715C8.96413 33.5531 7.7828 40.7085 9.1726 45.4925C9.33475 46.0646 9.49226 46.7105 10.2567 46.8258C12.2024 47.1257 13.4995 48.5097 14.9635 49.5938C16.4196 50.7478 18.1402 51.5245 19.9714 51.8544C23.7563 52.4495 26.7305 50.8579 28.4307 47.3056C29.9873 44.0439 30.6776 40.4501 32.2805 37.1931C35.0925 31.4817 39.2666 27.7449 45.9794 27.4773C48.759 27.3666 49.0925 26.7023 47.9343 24.2157C46.8994 22.003 45.5274 19.9629 43.8668 18.1675C43.4314 19.7499 43.8946 21.6322 42.1759 22.7163C41.5968 22.6517 41.4115 22.2181 41.2494 21.7521C41.1795 20.2294 40.9117 18.7221 40.4525 17.2679C39.4122 13.5023 37.5093 10.0282 34.8933 7.1185C34.3976 6.54644 33.4618 6.08972 33.9668 5.04248C44.0105 5.92363 51.659 10.7262 57.3017 18.9149C58.0985 20.0728 58.3301 21.6829 59.9052 22.2504C59.9052 22.481 59.8728 22.7624 59.6782 22.8732C56.1435 24.9123 53.16 27.7541 49.6068 29.7655C48.5893 30.3265 47.4434 30.6157 46.2805 30.6052C40.6471 30.6744 37.205 33.8345 34.9813 38.6509C33.851 41.0914 33.1283 43.6933 32.2619 46.2307C31.442 48.5835 30.2977 50.7702 28.4075 52.4264C24.6643 55.6973 20.4625 55.6927 16.0892 53.8381C14.2361 53.0585 12.712 51.7806 10.9099 50.7472C10.9099 53.0861 11.9661 55.0191 13.2957 56.7076C14.8999 58.7903 16.9345 60.5057 19.2619 61.7377C21.5893 62.9698 24.1552 63.6898 26.7861 63.8491C38.8543 64.7718 48.3745 59.9601 55.3791 50.2581C58.622 45.7832 59.1362 41.0729 56.0508 36.0997C53.5353 32.0492 56.5187 26.6746 61.1839 26.3516Z" fill="#FEE0B1"/>
<path d="M61.184 26.3516C59.3474 27.1489 57.76 28.4237 56.5884 30.0423C55.3654 31.6385 54.8836 33.4146 56.1251 35.1539C60.7254 41.5849 58.8306 47.4439 54.272 52.7539C46.4613 61.8791 36.5149 66.188 24.456 64.0382C17.507 62.8018 12.3647 58.8343 10.0947 51.8312C9.85378 51.0792 9.27469 50.1104 10.2661 49.5522C11.1926 49.0355 11.5771 50.0874 12.1192 50.5487C15.4732 53.4782 19.2674 55.2128 23.7704 54.2394C27.9398 53.3167 30.1172 50.1612 31.5024 46.3967C32.4799 43.7394 33.2767 40.999 34.4256 38.4155C36.7419 33.2439 40.4898 29.9915 46.4706 29.9823C48.3237 29.9823 49.8803 29.1242 51.3025 28.0262C54.0311 25.9225 56.681 23.6989 59.8637 22.2641C62.4626 21.4245 65.1264 21.4475 67.8088 21.6505C68.828 21.729 69.597 22.1119 69.8657 23.136C70.1853 24.377 69.6757 25.3643 68.7724 26.1901C67.9617 26.9375 67.1741 26.836 66.3078 26.2178C64.6076 24.9445 62.8842 25.4612 61.184 26.3516Z" fill="#321A19"/>
<path d="M19.9855 15.2241C22.237 12.0409 25.1417 9.33285 26.4296 5.53605C27.1337 3.7276 27.8194 1.92378 28.5884 0C29.7651 1.34249 29.7327 2.9341 29.9365 4.44729C29.8514 4.56974 29.7407 4.67234 29.6119 4.74801C29.4831 4.82368 29.3394 4.87061 29.1906 4.88556C27.3885 7.19225 26.2396 9.87723 24.4653 12.1793C23.0755 13.3511 22.4408 15.3533 20.4441 15.87C20.092 15.7823 19.8094 15.6486 19.9855 15.2241Z" fill="#442B28"/>
<path d="M33.9944 5.07465C37.0983 8.61772 40.0401 12.2484 40.9435 17.0694C40.8562 17.1358 40.7554 17.1823 40.6481 17.2054C40.5408 17.2285 40.4297 17.2278 40.3227 17.2032C39.838 16.9553 39.4704 16.5279 39.2988 16.013C37.8581 11.9947 34.9673 9.04215 32.1135 6.03423C31.3584 5.23612 31.1082 7.02611 30.5847 6.09882C30.4365 5.92561 30.344 5.71202 30.3192 5.48578C30.2944 5.25954 30.3385 5.03111 30.4458 4.83014C31.8309 2.04828 32.8409 4.58102 33.9944 5.07465Z" fill="#3A1F1C"/>
<path d="M30.4458 4.83015L30.6867 6.09883C31.15 7.05841 31.0017 7.63969 29.7602 7.54281C28.9958 6.6755 28.6529 5.7436 29.2737 4.64562L29.9269 4.44263C30.1122 4.57641 30.2744 4.70559 30.4458 4.83015Z" fill="#DD3D42"/>
<path d="M42.1206 22.5639C43.1953 20.857 43.01 18.9055 43.1861 16.7234C46.2668 19.4084 47.9763 22.6839 49.4356 26.1301C49.922 27.2742 48.9352 27.3941 48.2959 27.6986C46.781 28.4275 45.0947 27.9293 43.5104 28.3122C37.0246 29.89 33.6798 34.4756 31.6182 40.3623C30.7797 42.7474 30.1126 45.211 29.0008 47.4761C26.5176 52.6523 21.4587 54.1425 16.4045 51.3006C15.2407 50.5563 14.1209 49.7461 13.0504 48.874C12.4945 48.468 11.8922 47.693 11.378 47.7437C8.39455 48.0343 8.57059 45.8107 8.28337 44.053C7.35683 38.337 8.70957 33.1977 12.4111 28.1553C12.7308 30.9233 12.9994 33.1839 14.4865 35.0523C13.0133 35.8827 12.5918 34.2496 11.3965 33.7375C10.067 37.5851 9.14968 41.368 10.8684 45.3217C13.0411 46.1844 14.7274 47.7529 16.5805 49.0908C21.5792 52.0941 25.3224 50.9362 27.699 45.6169C29.1907 42.263 29.9041 38.6185 31.6924 35.366C33.319 32.398 35.6991 29.9068 38.5951 28.1415C39.3039 27.8139 39.9849 27.4495 40.6937 27.1127C42.294 26.5613 43.9642 26.2368 45.6553 26.1485C46.7208 26.0839 47.0451 25.5488 46.5818 24.6215C46.1019 23.4874 45.4658 22.4253 44.6917 21.4659C43.7513 21.6828 43.5474 23.6065 42.1206 22.5639Z" fill="#311A1A"/>
<path d="M10.192 45.9308C8.74663 41.2298 9.196 36.2889 11.4475 32.4782C12.5547 33.2164 12.9716 34.8172 14.4865 35.034C15.2556 34.3051 14.5329 33.5854 14.3893 32.9349C13.4951 28.889 13.5322 24.9676 15.5891 21.2216C17.3171 19.4685 18.3687 17.1065 20.4395 15.6855L24.0253 11.9349C24.9518 11.6627 25.4151 12.244 25.8088 12.9498C26.0358 14.3338 25.1186 15.2565 24.3125 16.1792C23.1775 17.4386 22.1166 18.7627 20.9677 19.9944C16.8955 24.3633 16.0014 29.3503 17.7665 34.951C18.1186 36.0628 19.11 37.3545 18.0028 38.3833C16.8955 39.4121 15.4965 38.9369 14.2966 38.3833C12.7307 37.7052 11.9803 38.3833 11.5587 39.7673C11.1727 41.0149 10.9622 42.3098 10.9333 43.6149C10.8962 44.4499 11.0444 45.3587 10.192 45.9308Z" fill="#F7252F"/>
<path d="M42.1205 22.5639C43.8994 22.7761 43.5983 20.9677 44.4368 20.1096C45.6974 21.6499 46.7359 23.358 47.5222 25.1843C48.0457 26.3007 47.587 26.7851 46.4567 26.7298C44.5156 26.6375 42.681 27.1911 40.8187 27.5925C39.8921 26.4345 39.9802 25.0136 39.7531 23.6711C38.9563 19.0116 37.7194 14.532 34.5414 10.8321C34.004 10.2093 33.5824 9.4481 32.6234 9.22204C31.9424 10.2508 31.7618 11.5287 31.002 12.4837C30.5665 13.0373 30.1079 13.6094 29.3389 13.5771C28.4586 13.5448 28.3011 12.7697 28.0973 12.1192C27.8313 11.1573 27.4172 10.2422 26.8696 9.40658C27.1059 7.56123 27.7962 7.0676 29.7373 7.39515C30.6267 7.39515 30.6638 6.75389 30.6638 6.09879C31.5903 5.40217 32.2621 5.35604 33.2581 6.32946C36.3598 9.37877 38.7922 13.0358 40.4017 17.0694C41.4904 18.4857 41.3283 20.2618 41.7915 21.8535L42.1205 22.5639Z" fill="#F7252F"/>
<path d="M20.4393 15.6855C18.9198 17.6231 17.6967 19.8144 15.5889 21.2215C16.6936 18.9834 18.1813 16.9539 19.9853 15.2241L20.4393 15.6855Z" fill="#5F312A"/>
<path d="M41.7775 21.872C41.0363 20.3588 40.8232 18.6933 40.3877 17.0879H40.9066C41.6152 18.5783 41.9156 20.2287 41.7775 21.872V21.872Z" fill="#4F2722"/>
<path d="M19.4991 60.9243C15.4687 59.1158 12.7493 56.1725 11.2622 51.4669C12.6752 52.4172 13.2357 53.5982 14.3893 54.0273C15.4594 54.5624 16.4786 55.2129 17.6692 55.4805C20.4164 56.6292 23.2285 56.2325 26.0683 55.8957C27.1338 55.7711 28.2457 55.4851 28.1947 54.0088C30.7288 51.9513 32.2483 49.2386 33.2907 46.2122C33.9068 44.3992 34.5693 42.6 35.1762 40.7869C36.4076 36.9441 39.1202 33.7451 42.7182 31.8923C44.877 31.0204 46.4244 31.3203 47.6659 33.6131C48.5925 35.2924 50.5938 35.9198 52.4052 36.538C55.9306 36.9578 56.9359 38.1158 57.0379 41.6819C57.1398 45.248 55.5508 48.0484 53.4846 50.6826C52.4077 51.9895 51.2052 53.1885 49.8942 54.2626C48.5878 55.3882 48.5739 55.3559 46.6884 54.4702C46.2529 54.2672 46.1649 54.7977 45.9148 54.9684C41.8797 57.7134 37.6593 60.0016 33.0359 60.4814C33.286 60.5229 34.2404 60.2461 34.2774 61.1596C34.2774 61.8054 33.425 61.9946 32.8459 62.0822C28.3198 62.7742 23.8307 62.7419 19.4991 60.9243Z" fill="#F7232E"/>
<path d="M19.499 60.9242C22.8948 61.5378 26.2952 62.036 29.779 61.8469C31.3013 61.8306 32.8093 61.5511 34.2356 61.0211L31.1132 60.7858C34.1105 59.8308 37.1866 59.1481 39.9894 57.7825C42.7922 56.4169 45.5162 54.8668 47.9113 52.5186C48.2958 53.875 46.8921 54.1056 47.096 55.2544C49.681 54.3317 51.2978 52.2695 52.9239 50.3919C55.1059 47.8776 56.6857 44.9942 56.5837 41.4788C56.5004 38.7108 55.3144 36.9162 52.4143 36.5425C55.8981 36.4041 57.2833 37.7559 57.5103 41.2805C57.8577 46.1383 55.4812 49.8475 52.4143 53.1876C46.3131 59.8724 38.595 63.3093 29.5705 63.5215C26.0867 63.6 22.5427 63.0279 19.499 60.9242Z" fill="#AE0815"/>
<path d="M67.1741 22.7578C68.2443 22.7578 69.1059 23.0023 68.6797 24.331C68.3138 25.452 67.6281 25.4935 66.5209 25.0184C61.4249 22.8455 54.2489 27.5557 54.2443 33.1241C54.2443 35.1124 53.4104 35.3108 51.877 34.9371C50.9779 34.727 50.1272 34.3481 49.3707 33.8207C48.4719 33.1794 47.4805 32.3951 47.5824 31.3479C47.6566 30.5867 48.9723 30.6005 49.7228 30.3745C51.1126 29.9731 52.0391 28.9905 53.1231 28.1278C55.6056 26.1479 58.3107 24.4619 61.184 23.1038C63.1807 22.6655 65.2006 22.9885 67.1741 22.7578Z" fill="#01AD55"/>
<path d="M42.7182 31.8923C39.2622 34.5727 36.427 37.7098 35.0974 41.9818C34.4581 44.0301 33.8049 46.0831 33.0312 48.0853C32.1047 50.475 30.8307 52.6433 28.5282 54.0135C28.3921 54.086 28.2352 54.11 28.0835 54.0815C27.9318 54.0529 27.7945 53.9736 27.6943 53.8566C31.6877 50.7472 32.8227 46.0785 34.3469 41.6312C35.4541 38.4018 36.8439 35.3939 39.6837 33.2948C40.5871 32.6305 41.4488 31.8324 42.7182 31.8923Z" fill="#F2AEAC"/>
<path d="M27.6941 53.8657L28.5233 54.0226C28.9403 54.9176 29.1858 55.6419 27.8377 56.0617C24.2612 57.1827 20.7497 57.3765 17.2705 55.7526C17.2705 54.8853 17.7708 55.139 18.2387 55.2913C21.5557 55.8956 24.743 55.6557 27.6941 53.8657Z" fill="#F2B3B4"/>
<path d="M67.1742 22.7578C65.2006 23.2698 63.19 23.1361 61.1841 23.1038C63.1576 22.2872 65.1775 22.6055 67.1742 22.7578Z" fill="#3EA66B"/>
<path d="M18.2389 55.3004L17.2707 55.7618C16.1959 55.3743 15.1211 54.9867 14.3892 54.0364C15.7975 54.0733 16.9557 54.8714 18.2389 55.3004Z" fill="#F19EA0"/>
<path d="M29.7512 7.38139C28.7273 7.6951 27.3699 7.59361 27.4348 9.25442C27.7591 10.9568 27.4997 12.3638 25.5817 12.9451L24.0205 11.9348C25.5215 9.51738 27.2634 7.23376 28.1899 4.49803C28.5837 3.36314 28.9868 4.0367 29.274 4.65027C29.4408 5.56372 29.5936 6.45872 29.7512 7.38139Z" fill="#F33539"/>
<path d="M39.0118 28.4921C34.3791 31.214 31.7848 35.4537 30.1634 40.4084C29.5148 42.3737 28.9125 44.3621 28.1111 46.2674C25.8689 51.5682 21.037 52.8461 16.2699 49.4737C14.2732 47.6271 13.0881 45.071 12.9714 42.3599C12.8325 40.1501 13.4903 39.7349 15.4916 40.653C16.7918 41.3072 18.2085 41.7007 19.6611 41.8109C21.1898 41.8801 21.9079 41.5018 21.1574 39.8548C20.4141 38.164 19.978 36.3552 19.8695 34.5126C19.5838 31.2027 20.3434 27.8865 22.0423 25.0275C23.0244 23.3805 24.0899 21.7981 25.0211 20.105C25.9523 18.4119 26.6657 18.5226 27.6617 20.045C28.0833 20.6909 27.8887 22.0288 29.0098 21.8904C29.9364 21.7658 30.3394 20.7093 30.7564 19.8789C30.8583 19.6713 30.9278 19.4545 31.0112 19.2377C32.1508 16.3359 33.2256 16.1237 35.2825 18.4257C37.2115 20.6351 38.5893 23.267 39.3037 26.107C39.5492 26.9374 39.6187 27.7586 39.0118 28.4921Z" fill="#FED547"/>
<path d="M39.0116 28.4921C38.7429 24.4185 36.964 21.0184 34.1844 18.1166C33.1513 17.0371 32.1367 16.6634 31.868 18.7763C31.7565 19.4587 31.5075 20.1115 31.136 20.6955C30.455 21.8027 29.6489 23.1821 28.3889 23.2098C27.5874 23.2098 27.7773 21.5397 27.3465 20.6817C27.0824 20.1511 26.962 19.5145 26.2671 19.1408C24.6966 21.9088 22.9269 24.5154 21.6344 27.348C19.6238 31.7907 20.1797 36.3025 22.1671 40.6391C22.8343 42.0923 22.5702 42.4383 20.9904 42.4845C18.3883 42.5892 15.8269 41.8153 13.7217 40.2885C12.999 43.9792 14.8938 46.6411 16.2651 49.4645C14.1109 48.4957 12.7859 46.1198 10.1777 45.9214C10.2704 43.4071 10.2055 40.8836 11.2988 38.5031C11.8733 37.2483 12.457 36.5009 13.8468 37.4974C13.9751 37.5818 14.1117 37.6529 14.2545 37.7096C15.3849 38.2309 16.7608 38.8491 17.7151 38.0372C18.4425 37.4236 17.5298 36.1918 17.2102 35.3245C14.551 28.0677 17.3584 22.4071 22.3617 17.3093C23.6264 16.0222 25.0163 14.7627 25.5861 12.9404C26.6609 11.9439 27.1195 10.6337 27.4392 9.24972C28.412 10.0478 28.5278 11.2381 28.7687 12.3315C29.0745 13.7155 29.598 13.3649 30.2141 12.6083C31.2519 11.335 31.641 9.7572 32.2433 7.81958C38.7754 13.0465 40.0864 20.1834 40.8091 27.5787L39.0116 28.4921Z" fill="#FE9D34"/>
<path d="M43.3016 36.8379C43.1479 36.8249 42.9984 36.7809 42.8624 36.7086C42.7264 36.6362 42.6065 36.537 42.5103 36.4169C42.4141 36.2969 42.3434 36.1586 42.3026 36.0105C42.2618 35.8623 42.2518 35.7075 42.2731 35.5554C42.277 35.4207 42.3085 35.2883 42.3657 35.1663C42.4229 35.0442 42.5045 34.9351 42.6056 34.8457C42.7068 34.7562 42.8252 34.6883 42.9536 34.6461C43.0821 34.6039 43.2178 34.5884 43.3525 34.6004C43.5082 34.5804 43.6664 34.5954 43.8155 34.6445C43.9645 34.6936 44.1006 34.7755 44.2136 34.884C44.3266 34.9925 44.4136 35.125 44.4682 35.2715C44.5229 35.4181 44.5437 35.575 44.5292 35.7307C44.5273 35.8855 44.4933 36.0382 44.4293 36.1793C44.3654 36.3204 44.273 36.4468 44.1577 36.5507C44.0425 36.6547 43.907 36.7338 43.7597 36.7832C43.6124 36.8326 43.4564 36.8512 43.3016 36.8379Z" fill="#FDB3B3"/>
<path d="M44.6545 38.042C45.1734 38.1619 45.5069 38.4433 45.4699 38.9646C45.4691 39.0787 45.4432 39.1912 45.394 39.2942C45.3448 39.3972 45.2735 39.4882 45.1852 39.5608C45.0968 39.6334 44.9936 39.6858 44.8827 39.7143C44.7718 39.7428 44.6559 39.7468 44.5433 39.7258C44.4282 39.7329 44.3129 39.7136 44.2064 39.6694C44.0999 39.6252 44.0049 39.5573 43.9289 39.4709C43.8529 39.3845 43.7977 39.2818 43.7677 39.1709C43.7377 39.0599 43.7336 38.9436 43.7558 38.8308C43.7622 38.7201 43.7907 38.6117 43.8395 38.512C43.8883 38.4123 43.9564 38.3232 44.04 38.2498C44.1235 38.1764 44.2209 38.1203 44.3263 38.0846C44.4318 38.049 44.5434 38.0345 44.6545 38.042Z" fill="#FB9EA0"/>
<path d="M21.3658 47.6053C21.3658 48.468 20.9349 48.8647 20.2354 48.9293C20.1038 48.9597 19.9669 48.9596 19.8354 48.9291C19.7038 48.8986 19.581 48.8386 19.4764 48.7535C19.3717 48.6684 19.288 48.5606 19.2317 48.4384C19.1753 48.3161 19.1478 48.1827 19.1513 48.0482C19.1235 47.8965 19.1263 47.7409 19.1596 47.5904C19.1929 47.4398 19.2561 47.2974 19.3454 47.1715C19.4347 47.0456 19.5484 46.9388 19.6797 46.8572C19.8111 46.7756 19.9575 46.721 20.1103 46.6965C20.8747 46.5534 21.1434 47.1486 21.3658 47.6053Z" fill="#FBF4D1"/>
<path d="M19.8697 44.6621C19.8049 45.1604 19.5454 45.5202 18.9941 45.4649C18.8783 45.4624 18.7643 45.4359 18.6594 45.3871C18.5544 45.3383 18.4608 45.2683 18.3845 45.1815C18.3083 45.0947 18.251 44.993 18.2164 44.8829C18.1817 44.7729 18.1705 44.6568 18.1834 44.5422C18.1791 44.4472 18.1952 44.3524 18.2306 44.2641C18.2661 44.1757 18.32 44.096 18.3888 44.03C18.4577 43.9641 18.5398 43.9136 18.6298 43.8817C18.7198 43.8499 18.8156 43.8376 18.9107 43.8456C19.1465 43.8277 19.3798 43.9036 19.5595 44.0567C19.7393 44.2097 19.8508 44.4274 19.8697 44.6621V44.6621Z" fill="#FCF2C5"/>
</g>
<path d="M89 19.4L87.1 25.52L85.2 19.4H82L85.6 29.4H88.6L92.2 19.4H89Z" fill="black"/>
<path d="M93.6953 29.4H96.6953V15H93.6953V29.4Z" fill="black"/>
<path d="M103.431 19.12C101.231 19.12 99.2706 20.4 99.2706 22.9H102.191C102.191 22.32 102.591 21.88 103.431 21.88C104.271 21.88 104.671 22.32 104.671 23.3V24.2C104.131 23.8 103.351 23.44 102.091 23.44C100.331 23.44 98.7906 24.48 98.7906 26.56C98.7906 28.64 100.331 29.68 102.091 29.68C103.351 29.68 104.131 29.24 104.671 28.62V29.4H107.591V23.1C107.591 20.4 105.631 19.12 103.431 19.12ZM103.151 27.56C102.231 27.56 101.791 27.14 101.791 26.56C101.791 25.98 102.231 25.56 103.151 25.56C104.131 25.56 104.671 25.94 104.671 26.56C104.671 27.14 104.131 27.56 103.151 27.56Z" fill="black"/>
<path d="M117.185 15.4V20.34C116.525 19.58 115.545 19.12 114.205 19.12C111.585 19.12 109.425 21.42 109.425 24.4C109.425 27.38 111.585 29.68 114.205 29.68C115.545 29.68 116.525 29.22 117.185 28.46V29.4H120.185V15.4H117.185ZM114.805 26.84C113.425 26.84 112.425 25.9 112.425 24.4C112.425 22.9 113.425 21.96 114.805 21.96C116.185 21.96 117.185 22.9 117.185 24.4C117.185 25.9 116.185 26.84 114.805 26.84Z" fill="black"/>
<path d="M123.096 17.08H126.396V14H123.096V17.08ZM123.096 29.4H126.396V18.4H123.096V29.4Z" fill="#F7232E"/>
<path d="M139.661 19.12C138.461 19.12 137.621 19.62 136.981 20.32C136.481 19.52 135.661 19.12 134.661 19.12C133.621 19.12 132.821 19.62 132.361 20.3V19.4H129.361V29.4H132.361V23.16C132.361 22.18 132.921 21.88 133.521 21.88C134.081 21.88 134.561 22.12 134.561 22.92V29.4H137.561V23.16C137.561 22.18 138.121 21.88 138.721 21.88C139.281 21.88 139.761 22.12 139.761 22.92V29.4H142.761V22.66C142.761 20.36 141.621 19.12 139.661 19.12Z" fill="black"/>
<path d="M145.093 18.2H148.093V15.4H145.093V18.2ZM145.093 29.4H148.093V19.4H145.093V29.4Z" fill="black"/>
<path d="M153.388 22.4C153.388 22 153.708 21.72 154.448 21.72C155.088 21.72 155.488 22.1 155.488 22.68H158.408C158.408 20.2 156.448 19.12 154.448 19.12C152.348 19.12 150.388 20.14 150.388 22.4C150.388 26.28 155.608 24.96 155.608 26.4C155.608 26.8 155.288 27.08 154.448 27.08C153.608 27.08 153.208 26.7 153.208 26.12H150.288C150.288 28.6 152.248 29.68 154.448 29.68C156.648 29.68 158.608 28.7 158.608 26.4C158.608 22.5 153.388 23.88 153.388 22.4Z" fill="black"/>
<path d="M166.415 19.12C165.135 19.12 164.275 19.62 163.815 20.32V15.4H160.815V29.4H163.815V23.56C163.815 22.38 164.375 21.88 165.275 21.88C166.035 21.88 166.615 22.32 166.615 23.32V29.4H169.615V23.06C169.615 20.56 168.275 19.12 166.415 19.12Z" fill="black"/>
<path d="M84.42 46.02C84.42 44.9 85.54 44.44 86.6 44.44C87.66 44.44 88.78 44.9 88.78 46.3H90.1C90.1 44.38 88.62 43.16 86.6 43.16C84.58 43.16 83.1 44.38 83.1 46.02C83.1 49.76 88.98 48.24 88.98 50.78C88.98 51.9 87.86 52.36 86.6 52.36C85.34 52.36 84.22 51.9 84.22 50.5H82.9C82.9 52.42 84.38 53.64 86.6 53.64C88.82 53.64 90.3 52.42 90.3 50.78C90.3 47.04 84.42 48.56 84.42 46.02Z" fill="black"/>
<path d="M97.3039 43.4H95.2239V40.2H93.9039V43.4H91.8039V44.68H93.9039V53.4H95.2239V44.68H97.3039V43.4Z" fill="black"/>
<path d="M103.782 53.64C106.702 53.64 109.042 51.36 109.042 48.4C109.042 45.44 106.702 43.16 103.782 43.16C100.862 43.16 98.5219 45.44 98.5219 48.4C98.5219 51.36 100.862 53.64 103.782 53.64ZM103.782 52.36C101.562 52.36 99.8419 50.62 99.8419 48.4C99.8419 46.18 101.562 44.44 103.782 44.44C106.002 44.44 107.722 46.18 107.722 48.4C107.722 50.62 106.002 52.36 103.782 52.36Z" fill="black"/>
<path d="M112.971 44.92V43.4H111.651V53.4H112.971V47.84C112.971 45.36 114.531 44.52 116.131 44.52V43.24C114.891 43.24 113.751 43.64 112.971 44.92Z" fill="black"/>
<path d="M122.254 43.16C119.154 43.16 117.134 45.46 117.134 48.4C117.134 51.42 119.194 53.64 122.254 53.64C124.474 53.64 126.194 52.4 126.754 50.66H125.294C124.854 51.62 123.754 52.36 122.274 52.36C120.254 52.36 118.754 51.1 118.494 49.06H127.074C127.094 48.86 127.114 48.64 127.114 48.44C127.114 45.7 125.314 43.16 122.254 43.16ZM122.254 44.44C123.974 44.44 125.514 45.58 125.754 47.78H118.494C118.734 45.82 120.154 44.44 122.254 44.44Z" fill="black"/>
<defs>
<clipPath id="clip0_31_962">
<rect width="70" height="67" fill="white"/>
</clipPath>
</defs>
</svg>
