<svg xmlns="http://www.w3.org/2000/svg" viewBox="0 0 383.13 313.28"><defs><style>.cls-1{fill:#daa37a;}.cls-2{fill:#edf3fe;}.cls-3{fill:#e1ad82;}.cls-4{fill:#cd9066;}.cls-5{fill:#cd9067;}.cls-6{fill:#daa379;}.cls-7{fill:#f34e75;}.cls-8{fill:#cddcf2;}.cls-9{fill:#453c4a;}.cls-10{fill:#54596d;}</style></defs><g id="Layer_2" data-name="Layer 2"><g id="Layer_1-2" data-name="Layer 1"><path d="M383.13,286.08c-1.56,3-4,4.14-7.34,4-4.35-.21-8.73.09-13.08-.11-2.42-.12-2.93.75-2.85,3,.16,4.6.09,9.22,0,13.83-.06,4.38-2,6.46-6.38,6.48q-22.44.11-44.88,0c-4.43,0-6.33-2-6.39-6.41s-.21-9,.06-13.46c.18-3-.92-3.43-3.59-3.42-30.91.09-61.82,0-92.74.1-3.71,0-6.68-.69-7.79-4.73-.84-3.47.08-5.51,3.14-6.93a13.63,13.63,0,0,1,5.85-1q72.62,0,145.25,0c.5,0,1,.07,1.49.09,3.86-.21,7.72-.05,11.59-.1,4.7-.07,5.14-.47,5.17-4.68s-.41-4.84-5-4.85c-5,0-10-.15-14.95-.15q-166,0-332,0c-1.92,0-4-.65-5.63,1.13a4.66,4.66,0,0,0-.54,1.78c-.67,5.94,0,6.77,6,6.77H173.34c2.61,0,5.25-.19,7.77.71,3.52,1.26,4.74,3.56,3.87,7.2-1.11,4-4.08,4.74-7.8,4.74-30.65-.07-61.31,0-92-.14-3.75,0-4.63,1-4.37,4.55.32,4.21.14,8.47.05,12.71-.07,3.94-2,6-6,6.06q-22.8.11-45.61,0c-4.07,0-6-2.19-6.06-6.42-.06-4.48-.22-9,.06-13.45.19-3-.88-3.54-3.56-3.4-4.48.21-9,.12-13.46,0-4.16-.08-6.21-2.09-6.25-6.2Q-.06,273,.05,262.1c0-4.33,2.06-6.44,6.38-6.54,4.61-.1,9.23-.17,13.83,0,2.49.11,3.06-.68,3-3.09-.1-15.57-.06-31.15-.05-46.73,0-5.32.79-6.39,5.86-8,3.54-.11,5.3,1.15,6.16,4.48a22.12,22.12,0,0,1,.38,5.57c0,13.58,0,27.15,0,40.73,0,5.54.12,5.66,5.61,5.66h123.3c1.49,0,3,0,4.48.1,3.73-.19,7.47-.16,11.21-.06,3.09.08,4.33-1.26,4.13-4.24,0-.74,0-1.49,0-2.24q0-56.26,0-112.54c0-6.55,0-6.54-6.66-6.57-2.74,0-5.48.12-8.22-.09-10.09.08-20.18,0-30.27,0-4.58,0-4.86.3-4.88,4.89,0,10.22,0,20.44,0,30.66a28,28,0,0,1-.2,4.48c-.88,5.17-5.43,7.52-10.06,5.07a86.39,86.39,0,0,1-10-6.55c-2.62-1.91-4.87-1.83-7.46.05a96.63,96.63,0,0,1-9,5.95c-5.67,3.24-10,1.26-11.44-5.1a27,27,0,0,1-.45-5.95c0-9.59,0-19.19,0-28.79,0-4.34-.38-4.69-4.7-4.7q-20.37,0-40.75,0c-4.28,0-4.62.36-4.63,4.77,0,14,0,27.92,0,41.87a22.26,22.26,0,0,1-.32,5.22c-.76,3.16-2.61,4.54-6.14,4.61-5.05-1.66-5.87-2.75-5.87-8q0-26.73,0-53.47c0-5.56,1.82-7.37,7.37-7.4,4.23,0,8.48-.18,12.71.06,2.73.17,3.21-.81,3.2-3.33-.09-27.17-.06-54.34-.05-81.51,0-6.54,1.58-8.13,8.13-8.13q63.57,0,127.12.08c3.42,0,4.62-.82,4.3-4.29S186,12.33,186,9c0-7.77,1.17-9,8.8-9H328.24c6.86,0,8.4,1.53,8.4,8.27q0,19.82,0,39.63V62.11c0,3.22-1.3,5.51-4.58,6.39-4,1.11-6.58-.37-7.44-4.25a23.74,23.74,0,0,1-.29-5.19c0-13.78,0-27.56,0-41.34,0-4.82-.26-5-5.05-5.07-3.6-.05-7.2.1-10.8-.08-6.23.12-12.46,0-18.69.06-3.91,0-4.24.36-4.26,4.33-.06,10.59,0,21.18,0,31.77,0,3.53.1,7.27-3.47,9.3-3.8,2.17-6.9-.22-9.94-2.22-2.49-1.65-5-3.25-7.46-5a5,5,0,0,0-6.51,0c-2.54,1.8-5.15,3.51-7.78,5.17-2.89,1.83-5.85,3.65-9.37,1.68s-4.1-5.43-4.13-9c-.06-9.09,0-18.19,0-27.29,0-1.24,0-2.49,0-3.73-.06-4.64-.31-4.93-4.84-4.95q-14.21,0-28.42,0c-4.53,0-4.82.3-4.83,4.95q0,57.95,0,115.89c0,1.36-.12,2.76.78,3.95,1.09,1.13,2.51.94,3.87.94,38.71-.06,77.42.16,116.13-.14,4.5,0,4.79-.31,4.8-4.95,0-13.94,0-27.88,0-41.83a18.6,18.6,0,0,1,.48-5.56c1-3.37,3.29-4.76,6.61-4.1,4,.91,5.29,3.55,5.27,7.42-.08,15.59,0,31.18-.1,46.76,0,2.7.49,3.71,3.41,3.51,4.22-.29,8.47-.09,12.71-.07,5.28,0,7.2,1.92,7.2,7.21,0,34.91.05,69.82-.07,104.73,0,3.26.59,4.62,4.15,4.28s7.48.09,11.21-.14a8.45,8.45,0,0,1,7.94,3.66Z"/><path class="cls-1" d="M29.12,185.07c4.14-1.16,5.47-3.91,5.42-8.12-.17-15.33,0-30.67-.12-46,0-2.57.3-3.67,3.34-3.64q23,.27,46,0c2.91,0,3.48.88,3.45,3.58-.15,11.09-.06,22.19-.06,33.29,0,1.12-.06,2.25,0,3.36.56,5.69,4.6,7.79,9.49,4.81,3.82-2.34,7.56-4.83,11.17-7.48,1.84-1.34,3.14-1.17,4.88.08,3.43,2.48,7,4.72,10.53,7.11,2.17,1.48,4.36,2.4,7,1s3.07-3.62,3.05-6.3c-.06-12.09,0-24.19,0-36.28,0-1.89-.09-3.24,2.62-3.19,11.09.2,22.18.16,33.27.21,1.35,1.41,1.21,3.21,1.21,4.93q0,59,0,117.93c0,1.73.11,3.52-1.22,4.94-3.6,0-7.21.14-10.82.15-39.73,0-79.45-.07-119.18.11-4,0-4.79-1.2-4.74-4.92.22-15,0-29.89.16-44.84.05-4.2-1.25-7-5.43-8.09Q29.11,191.41,29.12,185.07Z"/><path class="cls-2" d="M354,278.61c-1.36.06-2.73.16-4.09.17H206.1c-5.73,0-7.39,1.38-7.92,6.53a25.05,25.05,0,0,0-13.2,0c-.55-5.14-2.2-6.52-7.95-6.52H47.71c-11.21,0-22.43-.07-33.64.06-2.31,0-3.06-.56-2.86-2.88.25-2.85.16-5.72.22-8.58,1.41-.73,2.94-.35,4.4-.35q166,0,332,0c7.37,0,7.91.61,7.27,8.13A5.58,5.58,0,0,1,354,278.61Z"/><path class="cls-1" d="M308.31,11.43c4.71-.07,9.42,0,14.12-.25,2.61-.14,3.05.93,3,3.23-.08,15.77-.06,31.53,0,47.29,0,5,1.66,6.61,6.64,6.8-1.54,4.36-.49,8.85-.66,13.28-4.71.94-6,2.34-6,7,0,15.71-.08,31.42.05,47.13,0,2.71-.54,3.58-3.45,3.58-40.52-.1-81.05-.06-121.57-.09-1,0-2.27.63-3-.7,1.94-1.56,4.25-1.21,6.46-1.21q47.46,0,94.91,0c.87,0,1.74,0,2.61,0,5.57,0,5.65-.07,5.65-5.61q0-56.79,0-113.58C307.1,15.93,306.65,13.48,308.31,11.43Z"/><path class="cls-3" d="M308.31,11.43c0,40.87-.06,81.74.09,122.61,0,3.85-1,4.73-4.78,4.72-35.39-.14-70.78-.08-106.17-.08-.08-1.23-.22-2.47-.22-3.71q0-59.81-.08-119.62c0-3.13.55-4.28,4-4.21,11.21.25,22.43.2,33.64,0,2.9,0,3.5.88,3.46,3.59-.14,11.33,0,22.67-.07,34,0,3.14-.29,6.41,3.14,8.16s5.93-.35,8.52-2.1c1.86-1.26,3.74-2.47,5.6-3.71,5.95-4,5.95-4,12,.11,2.69,1.81,5.31,3.72,8.09,5.37,4.88,2.9,8.75.78,8.79-4.91.11-12.34.13-24.68,0-37,0-2.78.65-3.62,3.49-3.5C294.61,11.44,301.46,11.36,308.31,11.43Z"/><path class="cls-1" d="M331.49,255.35c-7.23.05-14.46.13-21.68.14-36.17,0-72.33,0-108.5.07-3.15,0-4.19-.56-4.18-4q.24-48.63,0-97.27c0-2.87.67-3.76,3.67-3.73,15.34.15,30.68.12,46,0,2.42,0,3.15.6,3.13,3.08-.13,11.85,0,23.7-.08,35.54,0,2.85.26,5.62,3.05,7.14s5.28.08,7.61-1.46,4.57-3,6.85-4.54c5.61-3.72,5.6-3.72,11-.07,2.58,1.74,5.19,3.44,7.76,5.2,2.07,1.43,4.19,2.15,6.63.91,2.62-1.33,3.18-3.63,3.18-6.26,0-11.85.15-23.7-.1-35.54-.07-3.43,1-4.1,4.16-4,10.47.24,20.95.16,31.42.2,1.35,1.41,1.21,3.21,1.21,4.93q0,47.37,0,94.74C332.7,252.14,332.81,253.93,331.49,255.35Z"/><path class="cls-3" d="M58.39,34.7c12.82-.07,25.64-.1,38.46-.24,2.59,0,1.93,1.7,1.94,3q0,17.55,0,35.12c0,3,.14,6,3,7.5s5.51,0,7.94-1.65c1.84-1.28,3.73-2.49,5.59-3.73,6.54-4.34,6.54-4.34,13.21.15,2.16,1.46,4.36,2.87,6.51,4.36s4.48,2.2,7,.78C144.39,78.7,145,76.49,145,74c0-11.83.13-23.67-.09-35.49-.06-3.33.81-4.24,4.1-4.08,6.71.32,13.44.2,20.16.26,1.29,1.43,1.21,3.22,1.21,4.95q0,35.51,0,71c0,4.94-.37,5.21-5.32,5.21H62.24c-4.2,0-4.21,0-4.21-4.23Q58,75,58,38.36C58.05,37.14,57.73,35.87,58.39,34.7Z"/><path class="cls-4" d="M169.12,255.34V127.54c4.73-.05,9.46,0,14.18-.19,2.24-.08,2.66.86,2.65,2.85-.09,8.71,0,17.43,0,26.14,0,31.49-.08,63,.1,94.46,0,4-1.2,5.08-5,4.75C177.1,255.21,173.1,255.39,169.12,255.34Z"/><path class="cls-5" d="M331.49,255.35V150.74c4.73,0,9.46.06,14.18-.18,2.54-.12,3.07.8,3.06,3.17-.09,19.8-.05,39.6-.05,59.4,0,13.08-.05,26.16.05,39.23,0,2.35-.5,3.31-3.05,3.18C341,255.31,336.22,255.4,331.49,255.35Z"/><path class="cls-6" d="M58.39,34.7c0,25.53.06,51.06-.06,76.59,0,3.17.65,4.28,4.08,4.26q51.38-.19,102.74,0c3.48,0,4.06-1.18,4-4.29-.11-25.53-.06-51.06-.06-76.59,4.85-.06,9.71-.06,14.56-.21,1.92-.06,2.26.83,2.26,2.48q0,38.33,0,76.64c0,2.27-.92,2.62-2.89,2.62q-61.31,0-122.62,0c-2.46,0-2.83-.89-2.82-3,.06-25.29,0-50.59.07-75.89C57.71,36.45,57.12,35.29,58.39,34.7Z"/><path class="cls-7" d="M284.27,181.34c-7.56-8.57-15.12-8.54-23.13.47,0-10.87,0-20.25,0-29.62,0-1.42.79-1.58,1.9-1.57,6.6,0,13.19,0,19.78,0,1.78,0,2,.89,2,2.33,0,9.05,0,18.11,0,27.17Z"/><path class="cls-7" d="M122,157.31c-4.6-1.81-7.29-6.22-12-6.11-4.52.12-7.15,4.57-11.69,6.09,0-9.55,0-18.83,0-28.11,0-1.57.85-1.8,2.14-1.8,6.46,0,12.93.05,19.39,0,1.6,0,2.17.47,2.16,2.12C122,138.65,122,147.81,122,157.31Z"/><path class="cls-7" d="M273.13,41.49c-3.11-2-5.69-3.69-8.24-5.41a5.92,5.92,0,0,0-7.28.09c-2.51,1.74-5.1,3.36-8.19,5.38,0-9.83,0-19,0-28.17,0-1.63.68-2.16,2.24-2.15,6.47,0,12.95.08,19.43,0,2.07,0,2.08,1.11,2.07,2.6C273.11,22.78,273.13,31.74,273.13,41.49Z"/><path class="cls-7" d="M110,64.77c0-9.77,0-18.74,0-27.7,0-1.87.41-2.66,2.46-2.62,6.23.12,12.45.06,18.68,0,1.52,0,2.65.09,2.63,2.12-.06,9.17,0,18.33,0,28.19-2.9-1.9-5.33-3.35-7.58-5-2.9-2.14-5.63-2.19-8.54,0C115.35,61.4,112.92,62.86,110,64.77Z"/><path class="cls-8" d="M354,278.61c0-2.87-.07-5.74,0-8.6.07-1.93-.68-2.76-2.62-2.61-1.11.09-2.24,0-3.36,0H16.29l-4.86,0c.87-1.4,2.24-.63,3.33-.63q176.67,0,353.33-.07c3.1,0,4,.72,3.89,3.85-.21,8.25-.05,8.27-8.33,8.25C360.42,278.77,357.18,278.67,354,278.61Z"/><path class="cls-9" d="M313.6,290.59c.79-1.2,2-.73,3.08-.74,9.59,0,19.18.08,28.78,0,2.32,0,3.26.52,3.3,3.08.12,8.95.22,8.95-8.63,8.95l-8.59,0c-1.55-1.79-1.26-4-1.15-6,.16-3-1-4.3-4.07-4.14-2.83.14-5.68.06-8.52,0C316.32,291.67,314.81,291.7,313.6,290.59Z"/><path class="cls-9" d="M34.59,290.62c.75-1.27,2-.76,3-.76,9.54,0,19.09.08,28.64,0,2.5,0,3.45.6,3.46,3.3,0,8.74.14,8.75-8.76,8.74-2.6,0-5.2-.06-7.81-.09-1.27-1.45-1.09-3.24-1.13-5-.13-5.08-.12-5.08-5.35-5.11-2.62,0-5.24,0-7.85,0C37.34,291.66,35.8,291.78,34.59,290.62Z"/><path class="cls-10" d="M34.59,290.62c5.09,0,10.19.1,15.27-.1,2.7-.11,3.49.92,3.32,3.45s0,5.21,0,7.82c-5.32,0-10.65,0-16,.18-2.14.06-2.85-.75-2.74-2.81C34.59,296.32,34.55,293.46,34.59,290.62Z"/><path class="cls-10" d="M313.6,290.59c5.06,0,10.12.06,15.17,0,2.09,0,2.86.74,2.77,2.81-.11,2.83,0,5.67,0,8.51-5.11,0-10.21,0-15.31.11-2.11,0-2.89-.7-2.78-2.8C313.61,296.32,313.56,293.45,313.6,290.59Z"/></g></g></svg>