<svg width="46" height="49" viewBox="0 0 46 49" fill="none" xmlns="http://www.w3.org/2000/svg">
<path d="M28.8955 48C28.9209 47.773 28.7295 47.8368 28.631 47.8255C18.9376 46.6522 11.5975 41.7375 6.22785 33.7136C4.97104 31.8387 4.13817 29.7565 3.56885 27.5749C4.25541 26.637 5.24022 26.1605 6.31414 25.8275C6.44562 25.7802 6.58227 25.7487 6.7212 25.7337C7.1836 25.7337 7.36368 25.4936 7.49123 25.0669C7.71448 24.2899 8.10252 23.5701 8.62893 22.9566C9.8469 25.7523 11.3679 28.4059 13.1647 30.8698C15.6483 34.3063 18.5568 37.3058 22.1688 39.5803C25.1167 41.4383 28.3122 42.5816 31.7947 42.8255C35.0361 43.0506 38.1735 42.5085 41.2123 41.3623C41.9561 41.081 42.6933 40.7808 43.4333 40.4891C42.2919 43.0393 40.5023 44.9911 38.0281 46.2967C36.3398 47.1849 34.5306 47.6595 32.6332 47.8152C32.4184 47.8321 32.4184 47.8312 32.2702 48.0028L28.8955 48Z" fill="#E12814"/>
<path d="M6.31425 25.8247C5.24033 26.1577 4.25551 26.6313 3.56895 27.5721C2.83644 28.3712 2.51942 29.3541 2.32715 30.398C2.10955 30.3586 2.08985 30.157 2.01857 30.0229C0.600434 27.2823 -0.171475 24.386 0.0329914 21.2908C0.257155 17.8899 1.6631 15.0217 4.14484 12.691C4.43559 12.4181 4.44966 12.2924 4.1908 11.9651C1.97824 9.16631 1.21946 6.0102 1.98105 2.51269C2.16179 1.73501 2.49667 1.00147 2.96587 0.355473C3.03622 0.254178 3.20129 0.175392 3.11312 0.00187683H4.14484C4.22456 0.300136 4.51438 0.199778 4.70759 0.287943C4.89381 0.364044 5.0842 0.429492 5.27785 0.483968C5.12684 0.791607 4.95895 1.09174 4.82765 1.40782C4.04542 3.29773 4.08669 5.24392 4.48061 7.20042C4.72766 8.41079 5.17595 9.57115 5.80684 10.6332C6.00286 10.9802 6.19044 11.1228 6.56561 10.833C6.89576 10.5741 7.26249 10.364 7.61327 10.1305C8.06441 9.97011 8.44615 9.64934 8.92636 9.55742C8.70407 10.0789 8.20698 10.364 7.86557 10.7842C5.20281 14.0576 4.42059 17.7858 5.1381 21.8901C5.37352 23.2511 5.87249 24.5276 6.31425 25.8247Z" fill="#189D5D"/>
<path d="M43.4333 40.4882C42.6933 40.7799 41.9561 41.081 41.2123 41.3614C38.1734 42.5085 35.0361 43.0506 31.7956 42.8255C28.3131 42.5816 25.1176 41.4383 22.1697 39.5803C18.5596 37.3058 15.6511 34.3064 13.1656 30.8698C11.3685 28.4059 9.84717 25.7523 8.62891 22.9566C8.69093 22.8498 8.75921 22.7467 8.83337 22.648C10.2581 20.9504 12.1311 20.1972 14.2968 20.0903C14.6307 20.0734 14.7723 19.9909 14.8492 19.6438C15.0997 18.4814 15.5967 17.3863 16.3067 16.4324C17.2203 15.2131 18.3702 14.3239 19.883 13.9619C22.0881 15.2872 23.9058 17.0073 25.2667 19.2039C26.3922 21.0198 27.0262 23.0091 27.5008 25.0763C28.209 28.1583 29.6018 30.8792 32.0075 33.0026C33.4191 34.2491 35.0323 35.0905 36.9401 35.2762C38.8159 35.4591 40.4488 34.8944 41.8792 33.693C42.0583 33.5419 42.2224 33.3703 42.4128 33.2362C42.9897 32.8301 43.6049 32.7879 44.2221 33.1293C44.8392 33.4707 45.176 34.0231 45.0868 34.7181C44.827 36.7215 44.3365 38.6658 43.4333 40.4882ZM18.3505 20.8678C18.5756 23.0841 19.49 24.9149 21.4906 26.0264C22.8375 26.7767 24.068 26.0592 24.0924 24.5135C24.129 22.2625 23.1385 20.4805 21.3077 19.1889C20.6765 18.7453 19.9365 18.5014 19.1946 18.931C18.4696 19.3549 18.3589 20.0903 18.3505 20.8678Z" fill="#F6583E"/>
<path d="M19.8841 13.9619C18.3731 14.3239 17.2214 15.2112 16.3078 16.4324C15.5978 17.3863 15.1008 18.4814 14.8503 19.6438C14.7734 19.9909 14.6318 20.0734 14.2979 20.0903C12.1322 20.1972 10.2592 20.9504 8.83448 22.648C8.75999 22.7467 8.69141 22.8497 8.62908 22.9566C8.10312 23.5699 7.71541 24.2894 7.49231 25.066C7.36476 25.4927 7.18468 25.7366 6.72228 25.7328C6.58335 25.7478 6.4467 25.7793 6.31522 25.8266C5.87346 24.5295 5.3773 23.2529 5.13626 21.892C4.41875 17.7877 5.20097 14.0594 7.86373 10.7861C8.20513 10.3659 8.70223 10.0808 8.92452 9.5593C11.6717 8.36063 14.402 8.42254 17.0994 9.70186C18.858 10.5366 20.3231 11.7587 21.5677 13.2481C21.6493 13.3466 21.8209 13.4357 21.7337 13.5933C21.6681 13.7105 21.5058 13.6636 21.3857 13.673C20.8727 13.7124 20.3625 13.7602 19.8841 13.9619Z" fill="#22B472"/>
<path d="M7.61031 10.1296C7.25952 10.3612 6.8928 10.5732 6.56265 10.8321C6.18748 11.1219 5.9999 10.9793 5.80106 10.6304C5.17017 9.56833 4.72188 8.40797 4.47484 7.19761C4.08091 5.24111 4.03964 3.29492 4.82187 1.40501C4.95318 1.08893 5.12106 0.788794 5.27207 0.481155C6.31035 0.681871 7.30642 1.04391 8.32688 1.30934C8.6514 1.39375 8.45725 1.5532 8.38784 1.68451C7.73693 2.89349 7.16855 4.13811 6.82339 5.47184C6.5589 6.47166 6.41727 7.48368 6.64331 8.51539C6.78026 9.14479 7.11998 9.71185 7.61031 10.1296V10.1296Z" fill="#22B472"/>
<path d="M18.3506 20.8678C18.359 20.0903 18.4697 19.3549 19.1947 18.9348C19.9366 18.5052 20.6766 18.7472 21.3079 19.1927C23.1387 20.4833 24.1291 22.2653 24.0925 24.5173C24.0682 26.063 22.8376 26.7814 21.4907 26.0301C19.4902 24.9149 18.5757 23.0841 18.3506 20.8678Z" fill="#FE9489"/>
</svg>
