<svg width="49" height="49" viewBox="0 0 49 49" fill="none" xmlns="http://www.w3.org/2000/svg">
<path d="M10.2188 41.5942C13.9393 42.3452 16.9266 40.8432 19.6153 38.4962C22.0477 36.3698 23.9338 33.7899 25.6321 31.0665C28.3884 26.6466 30.5223 21.9225 32.3971 17.0783C33.135 15.1688 34.3592 13.77 36.3682 13.1579C36.4436 13.139 36.5201 13.1249 36.5973 13.1156C36.694 13.1626 36.793 13.2046 36.8939 13.2414C38.8241 13.862 40.4867 14.8834 41.7757 16.4719C42.9642 17.9289 43.6054 19.5831 43.5313 21.4747C43.4665 23.0857 42.7624 24.4789 41.9475 25.8242C40.1797 28.7467 38.058 31.4016 35.7326 33.8876C34.0428 35.6985 32.2788 37.455 30.3815 39.0585C27.9152 41.1473 25.342 43.0953 22.5519 44.7373C19.3599 46.6215 16.0169 48.132 12.3236 48.7422C12.1978 48.7629 12.0683 48.7666 12.042 48.93H11.8542C11.9077 48.7122 11.719 48.7845 11.6355 48.7648C11.3482 48.6962 11.0506 48.6709 10.7671 48.5892C6.99685 47.5415 4.17575 45.248 2.13292 41.9538C1.12337 40.3177 0.505226 38.4707 0.32666 36.5566C0.629893 37.0091 0.91435 37.4757 1.24105 37.9113C2.4615 39.5401 3.9326 40.8403 5.93506 41.4421C7.32714 41.8543 8.80101 41.9066 10.2188 41.5942V41.5942Z" fill="#FC4755"/>
<path d="M46.8913 18.586C47.0293 19.1428 47.2152 19.6854 47.2912 20.2609C47.5175 21.9751 47.0687 23.5307 46.2388 25.0056C44.809 27.5403 43.0751 29.8686 41.1693 32.0672C36.9869 36.903 32.2638 41.122 26.8056 44.4791C23.8897 46.2723 20.8245 47.7405 17.4589 48.4944C17.0196 48.593 16.5717 48.6549 16.1305 48.7451C16.0301 48.7657 15.8489 48.7122 15.8789 48.9272H12.043C12.0702 48.7638 12.1997 48.7601 12.3246 48.7394C16.0179 48.1292 19.3581 46.6187 22.5576 44.7345C25.3477 43.0897 27.9209 41.1445 30.3872 39.0557C32.2826 37.4494 34.0429 35.6957 35.7383 33.8848C38.0637 31.3988 40.1854 28.7439 41.9532 25.8214C42.7681 24.4742 43.4722 23.0829 43.537 21.4719C43.6121 19.5802 42.9737 17.9261 41.7833 16.4653C40.4924 14.8768 38.8298 13.8554 36.9015 13.2349C36.8005 13.198 36.7015 13.156 36.6048 13.1091C37.0048 12.8988 37.4648 12.9833 37.8788 12.8462C39.0861 12.8687 40.269 13.0255 41.4031 13.4686C43.905 14.4553 45.7741 16.1179 46.8913 18.586Z" fill="#F92B3A"/>
<path d="M46.8914 18.586C45.7705 16.1151 43.9014 14.4487 41.3919 13.4686C40.2579 13.0255 39.075 12.8687 37.8677 12.8462C38.8872 11.9946 39.9874 11.2444 41.1525 10.6062C42.0322 10.1209 42.9503 10.1256 43.8441 10.5856C44.0929 10.7133 44.2196 10.6795 44.3783 10.4617C45.4729 9.0037 46.2812 7.42745 46.4831 5.57989C46.6008 4.59757 46.4472 3.60178 46.039 2.70058C45.7714 2.11289 45.3818 1.57402 45.8822 0.93H46.7271C46.6858 1.17033 46.9234 1.25483 47.0135 1.42381C47.4268 2.18571 47.7123 3.01031 47.8584 3.8647C47.8725 3.95013 47.7486 4.20079 48.0368 4.11723V5.80708C47.8631 5.70193 47.8828 5.86247 47.8734 5.93851C47.6237 7.92783 46.7685 9.65241 45.5771 11.2287C45.4372 11.4164 45.4504 11.4962 45.64 11.6211C46.4971 12.1844 46.9121 13.0039 46.9618 14.016C47.0398 15.5415 47.0717 17.0671 46.8914 18.586Z" fill="#ABDE92"/>
<path d="M0.326751 36.5566C0.192503 36.3829 0.267607 36.1726 0.224422 35.9839C0.205646 35.9022 0.255402 35.7182 0.0498047 35.8065V32.7131C0.290138 32.7854 0.213156 32.5798 0.228177 32.4888C0.274178 32.1977 0.292954 31.9029 0.330506 31.61C0.395284 31.1106 0.676924 30.797 1.09751 30.7473C1.63638 30.6834 1.9997 30.8975 2.15741 31.4392C2.41196 32.3659 2.71276 33.2792 3.05866 34.1758C3.91767 36.3031 5.01888 38.269 6.78665 39.7964C7.78929 40.6667 8.96373 41.2112 10.2189 41.5942C8.7993 41.9076 7.32337 41.8552 5.92952 41.4421C3.928 40.8403 2.45595 39.5401 1.23551 37.9113C0.909747 37.4757 0.62529 37.0091 0.326751 36.5566Z" fill="#F92B3A"/>
</svg>
